<svg xmlns="http://www.w3.org/2000/svg" version="1.1" xmlns:xlink="http://www.w3.org/1999/xlink" xmlns:svgjs="http://svgjs.dev/svgjs" width="128" height="128" viewBox="0 0 128 128"><g transform="matrix(0.8046875,0,0,0.8046875,12.612792253521128,12.612792253521128)"><svg viewBox="0 0 142 142" data-background-color="#ffffff" preserveAspectRatio="xMidYMid meet" height="128" width="128" xmlns="http://www.w3.org/2000/svg" xmlns:xlink="http://www.w3.org/1999/xlink"><g id="tight-bounds" transform="matrix(1,0,0,1,-0.15550000000000352,-0.15550000000000352)"><svg viewBox="0 0 142.31066447748242 142.31066447748242" height="142.31066447748242" width="142.31066447748242"><g><svg></svg></g><g><svg viewBox="0 0 142.31066447748242 142.31066447748242" height="142.31066447748242" width="142.31066447748242"><g><path d="M0 71.155c0-39.298 31.857-71.155 71.155-71.155 39.298 0 71.155 31.857 71.156 71.155 0 39.298-31.857 71.155-71.156 71.156-39.298 0-71.155-31.857-71.155-71.156zM71.155 134.886c35.197 0 63.731-28.533 63.731-63.731 0-35.197-28.533-63.731-63.731-63.73-35.197 0-63.731 28.533-63.73 63.73 0 35.197 28.533 63.731 63.73 63.731z" data-fill-palette-color="tertiary" fill="#ee3e38" stroke="transparent"></path><ellipse rx="68.30911894919156" ry="68.30911894919156" cx="71.15533223874121" cy="71.15533223874121" fill="#ee3e38" stroke="transparent" stroke-width="0" fill-opacity="1" data-fill-palette-color="tertiary"></ellipse></g><g transform="matrix(1,0,0,1,46.04393562192443,29.989108276746492)"><svg viewBox="0 0 50.22279323363356 82.33244792398943" height="82.33244792398943" width="50.22279323363356"><g><svg viewBox="0 0 50.22279323363356 82.33244792398943" height="82.33244792398943" width="50.22279323363356"><g><svg viewBox="0 0 50.22279323363356 82.33244792398943" height="82.33244792398943" width="50.22279323363356"><g id="textblocktransform"><svg viewBox="0 0 50.22279323363356 82.33244792398943" height="82.33244792398943" width="50.22279323363356" id="textblock"><g><svg viewBox="0 0 50.22279323363356 82.33244792398943" height="82.33244792398943" width="50.22279323363356"><g transform="matrix(1,0,0,1,0,0)"><svg width="50.22279323363356" viewBox="3.3 -35 21.349999999999998 35" height="82.33244792398943" data-palette-color="#ffffff"><path d="M19-18.85Q24.65-16.75 24.65-10L24.65-10Q24.65-5.4 21.98-2.7 19.3 0 14.6 0L14.6 0 3.3 0 3.3-35 12.4-35Q17.05-35 19.6-32.83 22.15-30.65 22.15-26.4L22.15-26.4Q22.15-23.9 21.35-21.93 20.55-19.95 19-18.85L19-18.85ZM7.85-30.85L7.85-20.4 11.85-20.4Q14.85-20.4 16.07-21.53 17.3-22.65 17.3-25.7L17.3-25.7Q17.3-28.65 16.07-29.75 14.85-30.85 11.85-30.85L11.85-30.85 7.85-30.85ZM14.2-4.15Q16.75-4.15 18.23-5.68 19.7-7.2 19.7-10.15L19.7-10.15Q19.7-13.35 18.28-14.78 16.85-16.2 14.2-16.2L14.2-16.2 7.85-16.2 7.85-4.15 14.2-4.15Z" opacity="1" transform="matrix(1,0,0,1,0,0)" fill="#ffffff" class="undefined-text-0" data-fill-palette-color="quaternary" id="text-0"></path></svg></g></svg></g></svg></g></svg></g><g></g></svg></g></svg></g></svg></g><defs></defs></svg><rect width="142.31066447748242" height="142.31066447748242" fill="none" stroke="none" visibility="hidden"></rect></g></svg></g></svg>